<svg width="255" height="226" viewBox="0 0 255 226" fill="none" xmlns="http://www.w3.org/2000/svg">
<rect width="255" height="226" fill="white"/>
<path d="M40.2714 179.808L38.9214 176.31C38.8814 176.206 38.8394 176.086 38.7954 175.95C38.7514 175.81 38.7094 175.662 38.6694 175.506C38.5854 175.83 38.4994 176.1 38.4114 176.316L37.0614 179.808H40.2714ZM42.6954 183H41.7954C41.6914 183 41.6074 182.974 41.5434 182.922C41.4794 182.87 41.4314 182.804 41.3994 182.724L40.5954 180.648H36.7374L35.9334 182.724C35.9094 182.796 35.8634 182.86 35.7954 182.916C35.7274 182.972 35.6434 183 35.5434 183H34.6434L38.0814 174.402H39.2574L42.6954 183ZM47.6405 178.002C47.6085 178.046 47.5765 178.08 47.5445 178.104C47.5125 178.128 47.4685 178.14 47.4125 178.14C47.3525 178.14 47.2865 178.116 47.2145 178.068C47.1425 178.016 47.0525 177.96 46.9445 177.9C46.8405 177.84 46.7105 177.786 46.5545 177.738C46.4025 177.686 46.2145 177.66 45.9905 177.66C45.6905 177.66 45.4265 177.714 45.1985 177.822C44.9705 177.926 44.7785 178.078 44.6225 178.278C44.4705 178.478 44.3545 178.72 44.2745 179.004C44.1985 179.288 44.1605 179.606 44.1605 179.958C44.1605 180.326 44.2025 180.654 44.2865 180.942C44.3705 181.226 44.4885 181.466 44.6405 181.662C44.7965 181.854 44.9825 182.002 45.1985 182.106C45.4185 182.206 45.6645 182.256 45.9365 182.256C46.1965 182.256 46.4105 182.226 46.5785 182.166C46.7465 182.102 46.8845 182.032 46.9925 181.956C47.1045 181.88 47.1965 181.812 47.2685 181.752C47.3445 181.688 47.4185 181.656 47.4905 181.656C47.5785 181.656 47.6465 181.69 47.6945 181.758L47.9945 182.148C47.8625 182.312 47.7125 182.452 47.5445 182.568C47.3765 182.684 47.1945 182.782 46.9985 182.862C46.8065 182.938 46.6045 182.994 46.3925 183.03C46.1805 183.066 45.9645 183.084 45.7445 183.084C45.3645 183.084 45.0105 183.014 44.6825 182.874C44.3585 182.734 44.0765 182.532 43.8365 182.268C43.5965 182 43.4085 181.672 43.2725 181.284C43.1365 180.896 43.0685 180.454 43.0685 179.958C43.0685 179.506 43.1305 179.088 43.2545 178.704C43.3825 178.32 43.5665 177.99 43.8065 177.714C44.0505 177.434 44.3485 177.216 44.7005 177.06C45.0565 176.904 45.4645 176.826 45.9245 176.826C46.3525 176.826 46.7285 176.896 47.0525 177.036C47.3805 177.172 47.6705 177.366 47.9225 177.618L47.6405 178.002ZM53.2655 178.002C53.2335 178.046 53.2015 178.08 53.1695 178.104C53.1375 178.128 53.0935 178.14 53.0375 178.14C52.9775 178.14 52.9115 178.116 52.8395 178.068C52.7675 178.016 52.6775 177.96 52.5695 177.9C52.4655 177.84 52.3355 177.786 52.1795 177.738C52.0275 177.686 51.8395 177.66 51.6155 177.66C51.3155 177.66 51.0515 177.714 50.8235 177.822C50.5955 177.926 50.4035 178.078 50.2475 178.278C50.0955 178.478 49.9795 178.72 49.8995 179.004C49.8235 179.288 49.7855 179.606 49.7855 179.958C49.7855 180.326 49.8275 180.654 49.9115 180.942C49.9955 181.226 50.1135 181.466 50.2655 181.662C50.4215 181.854 50.6075 182.002 50.8235 182.106C51.0435 182.206 51.2895 182.256 51.5615 182.256C51.8215 182.256 52.0355 182.226 52.2035 182.166C52.3715 182.102 52.5095 182.032 52.6175 181.956C52.7295 181.88 52.8215 181.812 52.8935 181.752C52.9695 181.688 53.0435 181.656 53.1155 181.656C53.2035 181.656 53.2715 181.69 53.3195 181.758L53.6195 182.148C53.4875 182.312 53.3375 182.452 53.1695 182.568C53.0015 182.684 52.8195 182.782 52.6235 182.862C52.4315 182.938 52.2295 182.994 52.0175 183.03C51.8055 183.066 51.5895 183.084 51.3695 183.084C50.9895 183.084 50.6355 183.014 50.3075 182.874C49.9835 182.734 49.7015 182.532 49.4615 182.268C49.2215 182 49.0335 181.672 48.8975 181.284C48.7615 180.896 48.6935 180.454 48.6935 179.958C48.6935 179.506 48.7555 179.088 48.8795 178.704C49.0075 178.32 49.1915 177.99 49.4315 177.714C49.6755 177.434 49.9735 177.216 50.3255 177.06C50.6815 176.904 51.0895 176.826 51.5495 176.826C51.9775 176.826 52.3535 176.896 52.6775 177.036C53.0055 177.172 53.2955 177.366 53.5475 177.618L53.2655 178.002ZM58.7285 179.298C58.7285 179.05 58.6925 178.824 58.6205 178.62C58.5525 178.412 58.4505 178.234 58.3145 178.086C58.1825 177.934 58.0205 177.818 57.8285 177.738C57.6365 177.654 57.4185 177.612 57.1745 177.612C56.6625 177.612 56.2565 177.762 55.9565 178.062C55.6605 178.358 55.4765 178.77 55.4045 179.298H58.7285ZM59.5925 182.148C59.4605 182.308 59.3025 182.448 59.1185 182.568C58.9345 182.684 58.7365 182.78 58.5245 182.856C58.3165 182.932 58.1005 182.988 57.8765 183.024C57.6525 183.064 57.4305 183.084 57.2105 183.084C56.7905 183.084 56.4025 183.014 56.0465 182.874C55.6945 182.73 55.3885 182.522 55.1285 182.25C54.8725 181.974 54.6725 181.634 54.5285 181.23C54.3845 180.826 54.3125 180.362 54.3125 179.838C54.3125 179.414 54.3765 179.018 54.5045 178.65C54.6365 178.282 54.8245 177.964 55.0685 177.696C55.3125 177.424 55.6105 177.212 55.9625 177.06C56.3145 176.904 56.7105 176.826 57.1505 176.826C57.5145 176.826 57.8505 176.888 58.1585 177.012C58.4705 177.132 58.7385 177.308 58.9625 177.54C59.1905 177.768 59.3685 178.052 59.4965 178.392C59.6245 178.728 59.6885 179.112 59.6885 179.544C59.6885 179.712 59.6705 179.824 59.6345 179.88C59.5985 179.936 59.5305 179.964 59.4305 179.964H55.3685C55.3805 180.348 55.4325 180.682 55.5245 180.966C55.6205 181.25 55.7525 181.488 55.9205 181.68C56.0885 181.868 56.2885 182.01 56.5205 182.106C56.7525 182.198 57.0125 182.244 57.3005 182.244C57.5685 182.244 57.7985 182.214 57.9905 182.154C58.1865 182.09 58.3545 182.022 58.4945 181.95C58.6345 181.878 58.7505 181.812 58.8425 181.752C58.9385 181.688 59.0205 181.656 59.0885 181.656C59.1765 181.656 59.2445 181.69 59.2925 181.758L59.5925 182.148ZM64.5403 177.924C64.4923 178.012 64.4183 178.056 64.3183 178.056C64.2583 178.056 64.1903 178.034 64.1143 177.99C64.0383 177.946 63.9443 177.898 63.8323 177.846C63.7243 177.79 63.5943 177.74 63.4423 177.696C63.2903 177.648 63.1103 177.624 62.9023 177.624C62.7223 177.624 62.5603 177.648 62.4163 177.696C62.2723 177.74 62.1483 177.802 62.0443 177.882C61.9443 177.962 61.8663 178.056 61.8103 178.164C61.7583 178.268 61.7323 178.382 61.7323 178.506C61.7323 178.662 61.7763 178.792 61.8643 178.896C61.9563 179 62.0763 179.09 62.2243 179.166C62.3723 179.242 62.5403 179.31 62.7283 179.37C62.9163 179.426 63.1083 179.488 63.3043 179.556C63.5043 179.62 63.6983 179.692 63.8863 179.772C64.0743 179.852 64.2423 179.952 64.3903 180.072C64.5383 180.192 64.6563 180.34 64.7443 180.516C64.8363 180.688 64.8823 180.896 64.8823 181.14C64.8823 181.42 64.8323 181.68 64.7323 181.92C64.6323 182.156 64.4843 182.362 64.2883 182.538C64.0923 182.71 63.8523 182.846 63.5683 182.946C63.2843 183.046 62.9563 183.096 62.5843 183.096C62.1603 183.096 61.7763 183.028 61.4323 182.892C61.0883 182.752 60.7963 182.574 60.5563 182.358L60.8083 181.95C60.8403 181.898 60.8783 181.858 60.9223 181.83C60.9663 181.802 61.0223 181.788 61.0903 181.788C61.1623 181.788 61.2383 181.816 61.3183 181.872C61.3983 181.928 61.4943 181.99 61.6063 182.058C61.7223 182.126 61.8623 182.188 62.0263 182.244C62.1903 182.3 62.3943 182.328 62.6383 182.328C62.8463 182.328 63.0283 182.302 63.1843 182.25C63.3403 182.194 63.4703 182.12 63.5743 182.028C63.6783 181.936 63.7543 181.83 63.8023 181.71C63.8543 181.59 63.8803 181.462 63.8803 181.326C63.8803 181.158 63.8343 181.02 63.7423 180.912C63.6543 180.8 63.5363 180.706 63.3883 180.63C63.2403 180.55 63.0703 180.482 62.8783 180.426C62.6903 180.366 62.4963 180.304 62.2963 180.24C62.1003 180.176 61.9063 180.104 61.7143 180.024C61.5263 179.94 61.3583 179.836 61.2103 179.712C61.0623 179.588 60.9423 179.436 60.8503 179.256C60.7623 179.072 60.7183 178.85 60.7183 178.59C60.7183 178.358 60.7663 178.136 60.8623 177.924C60.9583 177.708 61.0983 177.52 61.2823 177.36C61.4663 177.196 61.6923 177.066 61.9603 176.97C62.2283 176.874 62.5343 176.826 62.8783 176.826C63.2783 176.826 63.6363 176.89 63.9523 177.018C64.2723 177.142 64.5483 177.314 64.7803 177.534L64.5403 177.924ZM69.7317 177.924C69.6837 178.012 69.6097 178.056 69.5097 178.056C69.4497 178.056 69.3817 178.034 69.3057 177.99C69.2297 177.946 69.1357 177.898 69.0237 177.846C68.9157 177.79 68.7857 177.74 68.6337 177.696C68.4817 177.648 68.3017 177.624 68.0937 177.624C67.9137 177.624 67.7517 177.648 67.6077 177.696C67.4637 177.74 67.3397 177.802 67.2357 177.882C67.1357 177.962 67.0577 178.056 67.0017 178.164C66.9497 178.268 66.9237 178.382 66.9237 178.506C66.9237 178.662 66.9677 178.792 67.0557 178.896C67.1477 179 67.2677 179.09 67.4157 179.166C67.5637 179.242 67.7317 179.31 67.9197 179.37C68.1077 179.426 68.2997 179.488 68.4957 179.556C68.6957 179.62 68.8897 179.692 69.0777 179.772C69.2657 179.852 69.4337 179.952 69.5817 180.072C69.7297 180.192 69.8477 180.34 69.9357 180.516C70.0277 180.688 70.0737 180.896 70.0737 181.14C70.0737 181.42 70.0237 181.68 69.9237 181.92C69.8237 182.156 69.6757 182.362 69.4797 182.538C69.2837 182.71 69.0437 182.846 68.7597 182.946C68.4757 183.046 68.1477 183.096 67.7757 183.096C67.3517 183.096 66.9677 183.028 66.6237 182.892C66.2797 182.752 65.9877 182.574 65.7477 182.358L65.9997 181.95C66.0317 181.898 66.0697 181.858 66.1137 181.83C66.1577 181.802 66.2137 181.788 66.2817 181.788C66.3537 181.788 66.4297 181.816 66.5097 181.872C66.5897 181.928 66.6857 181.99 66.7977 182.058C66.9137 182.126 67.0537 182.188 67.2177 182.244C67.3817 182.3 67.5857 182.328 67.8297 182.328C68.0377 182.328 68.2197 182.302 68.3757 182.25C68.5317 182.194 68.6617 182.12 68.7657 182.028C68.8697 181.936 68.9457 181.83 68.9937 181.71C69.0457 181.59 69.0717 181.462 69.0717 181.326C69.0717 181.158 69.0257 181.02 68.9337 180.912C68.8457 180.8 68.7277 180.706 68.5797 180.63C68.4317 180.55 68.2617 180.482 68.0697 180.426C67.8817 180.366 67.6877 180.304 67.4877 180.24C67.2917 180.176 67.0977 180.104 66.9057 180.024C66.7177 179.94 66.5497 179.836 66.4017 179.712C66.2537 179.588 66.1337 179.436 66.0417 179.256C65.9537 179.072 65.9097 178.85 65.9097 178.59C65.9097 178.358 65.9577 178.136 66.0537 177.924C66.1497 177.708 66.2897 177.52 66.4737 177.36C66.6577 177.196 66.8837 177.066 67.1517 176.97C67.4197 176.874 67.7257 176.826 68.0697 176.826C68.4697 176.826 68.8277 176.89 69.1437 177.018C69.4637 177.142 69.7397 177.314 69.9717 177.534L69.7317 177.924ZM79.3927 176.922L76.0027 184.794C75.9667 184.874 75.9207 184.938 75.8647 184.986C75.8127 185.034 75.7307 185.058 75.6187 185.058H74.8267L75.9367 182.646L73.4287 176.922H74.3527C74.4447 176.922 74.5167 176.946 74.5687 176.994C74.6247 177.038 74.6627 177.088 74.6827 177.144L76.3087 180.972C76.3727 181.14 76.4267 181.316 76.4707 181.5C76.5267 181.312 76.5867 181.134 76.6507 180.966L78.2287 177.144C78.2527 177.08 78.2927 177.028 78.3487 176.988C78.4087 176.944 78.4747 176.922 78.5467 176.922H79.3927ZM82.7342 176.826C83.1782 176.826 83.5782 176.9 83.9342 177.048C84.2902 177.196 84.5942 177.406 84.8462 177.678C85.0982 177.95 85.2902 178.28 85.4222 178.668C85.5582 179.052 85.6262 179.482 85.6262 179.958C85.6262 180.438 85.5582 180.87 85.4222 181.254C85.2902 181.638 85.0982 181.966 84.8462 182.238C84.5942 182.51 84.2902 182.72 83.9342 182.868C83.5782 183.012 83.1782 183.084 82.7342 183.084C82.2862 183.084 81.8822 183.012 81.5222 182.868C81.1662 182.72 80.8622 182.51 80.6102 182.238C80.3582 181.966 80.1642 181.638 80.0282 181.254C79.8962 180.87 79.8302 180.438 79.8302 179.958C79.8302 179.482 79.8962 179.052 80.0282 178.668C80.1642 178.28 80.3582 177.95 80.6102 177.678C80.8622 177.406 81.1662 177.196 81.5222 177.048C81.8822 176.9 82.2862 176.826 82.7342 176.826ZM82.7342 182.25C83.3342 182.25 83.7822 182.05 84.0782 181.65C84.3742 181.246 84.5222 180.684 84.5222 179.964C84.5222 179.24 84.3742 178.676 84.0782 178.272C83.7822 177.868 83.3342 177.666 82.7342 177.666C82.4302 177.666 82.1642 177.718 81.9362 177.822C81.7122 177.926 81.5242 178.076 81.3722 178.272C81.2242 178.468 81.1122 178.71 81.0362 178.998C80.9642 179.282 80.9282 179.604 80.9282 179.964C80.9282 180.684 81.0762 181.246 81.3722 181.65C81.6722 182.05 82.1262 182.25 82.7342 182.25ZM91.9788 176.922V183H91.3428C91.1908 183 91.0948 182.926 91.0548 182.778L90.9708 182.124C90.7068 182.416 90.4108 182.652 90.0828 182.832C89.7548 183.008 89.3788 183.096 88.9548 183.096C88.6228 183.096 88.3288 183.042 88.0728 182.934C87.8208 182.822 87.6088 182.666 87.4368 182.466C87.2648 182.266 87.1348 182.024 87.0468 181.74C86.9628 181.456 86.9208 181.142 86.9208 180.798V176.922H87.9888V180.798C87.9888 181.258 88.0928 181.614 88.3008 181.866C88.5128 182.118 88.8348 182.244 89.2668 182.244C89.5828 182.244 89.8768 182.17 90.1488 182.022C90.4248 181.87 90.6788 181.662 90.9108 181.398V176.922H91.9788ZM94.6862 178.14C94.8782 177.724 95.1142 177.4 95.3942 177.168C95.6742 176.932 96.0162 176.814 96.4202 176.814C96.5482 176.814 96.6702 176.828 96.7862 176.856C96.9062 176.884 97.0122 176.928 97.1042 176.988L97.0262 177.786C97.0022 177.886 96.9422 177.936 96.8462 177.936C96.7902 177.936 96.7082 177.924 96.6002 177.9C96.4922 177.876 96.3702 177.864 96.2342 177.864C96.0422 177.864 95.8702 177.892 95.7182 177.948C95.5702 178.004 95.4362 178.088 95.3162 178.2C95.2002 178.308 95.0942 178.444 94.9982 178.608C94.9062 178.768 94.8222 178.952 94.7462 179.16V183H93.6722V176.922H94.2842C94.4002 176.922 94.4802 176.944 94.5242 176.988C94.5682 177.032 94.5982 177.108 94.6142 177.216L94.6862 178.14ZM104.15 180.264C103.658 180.28 103.238 180.32 102.89 180.384C102.546 180.444 102.264 180.524 102.044 180.624C101.828 180.724 101.67 180.842 101.57 180.978C101.474 181.114 101.426 181.266 101.426 181.434C101.426 181.594 101.452 181.732 101.504 181.848C101.556 181.964 101.626 182.06 101.714 182.136C101.806 182.208 101.912 182.262 102.032 182.298C102.156 182.33 102.288 182.346 102.428 182.346C102.616 182.346 102.788 182.328 102.944 182.292C103.1 182.252 103.246 182.196 103.382 182.124C103.522 182.052 103.654 181.966 103.778 181.866C103.906 181.766 104.03 181.652 104.15 181.524V180.264ZM100.7 177.78C101.036 177.456 101.398 177.214 101.786 177.054C102.174 176.894 102.604 176.814 103.076 176.814C103.416 176.814 103.718 176.87 103.982 176.982C104.246 177.094 104.468 177.25 104.648 177.45C104.828 177.65 104.964 177.892 105.056 178.176C105.148 178.46 105.194 178.772 105.194 179.112V183H104.72C104.616 183 104.536 182.984 104.48 182.952C104.424 182.916 104.38 182.848 104.348 182.748L104.228 182.172C104.068 182.32 103.912 182.452 103.76 182.568C103.608 182.68 103.448 182.776 103.28 182.856C103.112 182.932 102.932 182.99 102.74 183.03C102.552 183.074 102.342 183.096 102.11 183.096C101.874 183.096 101.652 183.064 101.444 183C101.236 182.932 101.054 182.832 100.898 182.7C100.746 182.568 100.624 182.402 100.532 182.202C100.444 181.998 100.4 181.758 100.4 181.482C100.4 181.242 100.466 181.012 100.598 180.792C100.73 180.568 100.944 180.37 101.24 180.198C101.536 180.026 101.922 179.886 102.398 179.778C102.874 179.666 103.458 179.602 104.15 179.586V179.112C104.15 178.64 104.048 178.284 103.844 178.044C103.64 177.8 103.342 177.678 102.95 177.678C102.686 177.678 102.464 177.712 102.284 177.78C102.108 177.844 101.954 177.918 101.822 178.002C101.694 178.082 101.582 178.156 101.486 178.224C101.394 178.288 101.302 178.32 101.21 178.32C101.138 178.32 101.076 178.302 101.024 178.266C100.972 178.226 100.928 178.178 100.892 178.122L100.7 177.78ZM111.051 178.002C111.019 178.046 110.987 178.08 110.955 178.104C110.923 178.128 110.879 178.14 110.823 178.14C110.763 178.14 110.697 178.116 110.625 178.068C110.553 178.016 110.463 177.96 110.355 177.9C110.251 177.84 110.121 177.786 109.965 177.738C109.813 177.686 109.625 177.66 109.401 177.66C109.101 177.66 108.837 177.714 108.609 177.822C108.381 177.926 108.189 178.078 108.033 178.278C107.881 178.478 107.765 178.72 107.685 179.004C107.609 179.288 107.571 179.606 107.571 179.958C107.571 180.326 107.613 180.654 107.697 180.942C107.781 181.226 107.899 181.466 108.051 181.662C108.207 181.854 108.393 182.002 108.609 182.106C108.829 182.206 109.075 182.256 109.347 182.256C109.607 182.256 109.821 182.226 109.989 182.166C110.157 182.102 110.295 182.032 110.403 181.956C110.515 181.88 110.607 181.812 110.679 181.752C110.755 181.688 110.829 181.656 110.901 181.656C110.989 181.656 111.057 181.69 111.105 181.758L111.405 182.148C111.273 182.312 111.123 182.452 110.955 182.568C110.787 182.684 110.605 182.782 110.409 182.862C110.217 182.938 110.015 182.994 109.803 183.03C109.591 183.066 109.375 183.084 109.155 183.084C108.775 183.084 108.421 183.014 108.093 182.874C107.769 182.734 107.487 182.532 107.247 182.268C107.007 182 106.819 181.672 106.683 181.284C106.547 180.896 106.479 180.454 106.479 179.958C106.479 179.506 106.541 179.088 106.665 178.704C106.793 178.32 106.977 177.99 107.217 177.714C107.461 177.434 107.759 177.216 108.111 177.06C108.467 176.904 108.875 176.826 109.335 176.826C109.763 176.826 110.139 176.896 110.463 177.036C110.791 177.172 111.081 177.366 111.333 177.618L111.051 178.002ZM116.676 178.002C116.644 178.046 116.612 178.08 116.58 178.104C116.548 178.128 116.504 178.14 116.448 178.14C116.388 178.14 116.322 178.116 116.25 178.068C116.178 178.016 116.088 177.96 115.98 177.9C115.876 177.84 115.746 177.786 115.59 177.738C115.438 177.686 115.25 177.66 115.026 177.66C114.726 177.66 114.462 177.714 114.234 177.822C114.006 177.926 113.814 178.078 113.658 178.278C113.506 178.478 113.39 178.72 113.31 179.004C113.234 179.288 113.196 179.606 113.196 179.958C113.196 180.326 113.238 180.654 113.322 180.942C113.406 181.226 113.524 181.466 113.676 181.662C113.832 181.854 114.018 182.002 114.234 182.106C114.454 182.206 114.7 182.256 114.972 182.256C115.232 182.256 115.446 182.226 115.614 182.166C115.782 182.102 115.92 182.032 116.028 181.956C116.14 181.88 116.232 181.812 116.304 181.752C116.38 181.688 116.454 181.656 116.526 181.656C116.614 181.656 116.682 181.69 116.73 181.758L117.03 182.148C116.898 182.312 116.748 182.452 116.58 182.568C116.412 182.684 116.23 182.782 116.034 182.862C115.842 182.938 115.64 182.994 115.428 183.03C115.216 183.066 115 183.084 114.78 183.084C114.4 183.084 114.046 183.014 113.718 182.874C113.394 182.734 113.112 182.532 112.872 182.268C112.632 182 112.444 181.672 112.308 181.284C112.172 180.896 112.104 180.454 112.104 179.958C112.104 179.506 112.166 179.088 112.29 178.704C112.418 178.32 112.602 177.99 112.842 177.714C113.086 177.434 113.384 177.216 113.736 177.06C114.092 176.904 114.5 176.826 114.96 176.826C115.388 176.826 115.764 176.896 116.088 177.036C116.416 177.172 116.706 177.366 116.958 177.618L116.676 178.002ZM120.633 176.826C121.077 176.826 121.477 176.9 121.833 177.048C122.189 177.196 122.493 177.406 122.745 177.678C122.997 177.95 123.189 178.28 123.321 178.668C123.457 179.052 123.525 179.482 123.525 179.958C123.525 180.438 123.457 180.87 123.321 181.254C123.189 181.638 122.997 181.966 122.745 182.238C122.493 182.51 122.189 182.72 121.833 182.868C121.477 183.012 121.077 183.084 120.633 183.084C120.185 183.084 119.781 183.012 119.421 182.868C119.065 182.72 118.761 182.51 118.509 182.238C118.257 181.966 118.063 181.638 117.927 181.254C117.795 180.87 117.729 180.438 117.729 179.958C117.729 179.482 117.795 179.052 117.927 178.668C118.063 178.28 118.257 177.95 118.509 177.678C118.761 177.406 119.065 177.196 119.421 177.048C119.781 176.9 120.185 176.826 120.633 176.826ZM120.633 182.25C121.233 182.25 121.681 182.05 121.977 181.65C122.273 181.246 122.421 180.684 122.421 179.964C122.421 179.24 122.273 178.676 121.977 178.272C121.681 177.868 121.233 177.666 120.633 177.666C120.329 177.666 120.063 177.718 119.835 177.822C119.611 177.926 119.423 178.076 119.271 178.272C119.123 178.468 119.011 178.71 118.935 178.998C118.863 179.282 118.827 179.604 118.827 179.964C118.827 180.684 118.975 181.246 119.271 181.65C119.571 182.05 120.025 182.25 120.633 182.25ZM129.877 176.922V183H129.241C129.089 183 128.993 182.926 128.953 182.778L128.869 182.124C128.605 182.416 128.309 182.652 127.981 182.832C127.653 183.008 127.277 183.096 126.853 183.096C126.521 183.096 126.227 183.042 125.971 182.934C125.719 182.822 125.507 182.666 125.335 182.466C125.163 182.266 125.033 182.024 124.945 181.74C124.861 181.456 124.819 181.142 124.819 180.798V176.922H125.887V180.798C125.887 181.258 125.991 181.614 126.199 181.866C126.411 182.118 126.733 182.244 127.165 182.244C127.481 182.244 127.775 182.17 128.047 182.022C128.323 181.87 128.577 181.662 128.809 181.398V176.922H129.877ZM132.579 177.804C132.711 177.656 132.851 177.522 132.999 177.402C133.147 177.282 133.303 177.18 133.467 177.096C133.635 177.008 133.811 176.942 133.995 176.898C134.183 176.85 134.385 176.826 134.601 176.826C134.933 176.826 135.225 176.882 135.477 176.994C135.733 177.102 135.945 177.258 136.113 177.462C136.285 177.662 136.415 177.904 136.503 178.188C136.591 178.472 136.635 178.786 136.635 179.13V183H135.561V179.13C135.561 178.67 135.455 178.314 135.243 178.062C135.035 177.806 134.717 177.678 134.289 177.678C133.973 177.678 133.677 177.754 133.401 177.906C133.129 178.058 132.877 178.264 132.645 178.524V183H131.571V176.922H132.213C132.365 176.922 132.459 176.996 132.495 177.144L132.579 177.804ZM140.046 183.096C139.566 183.096 139.196 182.962 138.936 182.694C138.68 182.426 138.552 182.04 138.552 181.536V177.816H137.82C137.756 177.816 137.702 177.798 137.658 177.762C137.614 177.722 137.592 177.662 137.592 177.582V177.156L138.588 177.03L138.834 175.152C138.846 175.092 138.872 175.044 138.912 175.008C138.956 174.968 139.012 174.948 139.08 174.948H139.62V177.042H141.378V177.816H139.62V181.464C139.62 181.72 139.682 181.91 139.806 182.034C139.93 182.158 140.09 182.22 140.286 182.22C140.398 182.22 140.494 182.206 140.574 182.178C140.658 182.146 140.73 182.112 140.79 182.076C140.85 182.04 140.9 182.008 140.94 181.98C140.984 181.948 141.022 181.932 141.054 181.932C141.11 181.932 141.16 181.966 141.204 182.034L141.516 182.544C141.332 182.716 141.11 182.852 140.85 182.952C140.59 183.048 140.322 183.096 140.046 183.096ZM145.947 183V177.834L145.275 177.756C145.191 177.736 145.121 177.706 145.065 177.666C145.013 177.622 144.987 177.56 144.987 177.48V177.042H145.947V176.454C145.947 176.106 145.995 175.798 146.091 175.53C146.191 175.258 146.331 175.03 146.511 174.846C146.695 174.658 146.915 174.516 147.171 174.42C147.427 174.324 147.715 174.276 148.035 174.276C148.307 174.276 148.557 174.316 148.785 174.396L148.761 174.93C148.753 175.026 148.699 175.078 148.599 175.086C148.503 175.094 148.373 175.098 148.209 175.098C148.025 175.098 147.857 175.122 147.705 175.17C147.557 175.218 147.429 175.296 147.321 175.404C147.213 175.512 147.129 175.654 147.069 175.83C147.013 176.006 146.985 176.224 146.985 176.484V177.042H148.737V177.816H147.021V183H145.947ZM150.772 178.14C150.964 177.724 151.2 177.4 151.48 177.168C151.76 176.932 152.102 176.814 152.506 176.814C152.634 176.814 152.756 176.828 152.872 176.856C152.992 176.884 153.098 176.928 153.19 176.988L153.112 177.786C153.088 177.886 153.028 177.936 152.932 177.936C152.876 177.936 152.794 177.924 152.686 177.9C152.578 177.876 152.456 177.864 152.32 177.864C152.128 177.864 151.956 177.892 151.804 177.948C151.656 178.004 151.522 178.088 151.402 178.2C151.286 178.308 151.18 178.444 151.084 178.608C150.992 178.768 150.908 178.952 150.832 179.16V183H149.758V176.922H150.37C150.486 176.922 150.566 176.944 150.61 176.988C150.654 177.032 150.684 177.108 150.7 177.216L150.772 178.14ZM156.445 176.826C156.889 176.826 157.289 176.9 157.645 177.048C158.001 177.196 158.305 177.406 158.557 177.678C158.809 177.95 159.001 178.28 159.133 178.668C159.269 179.052 159.337 179.482 159.337 179.958C159.337 180.438 159.269 180.87 159.133 181.254C159.001 181.638 158.809 181.966 158.557 182.238C158.305 182.51 158.001 182.72 157.645 182.868C157.289 183.012 156.889 183.084 156.445 183.084C155.997 183.084 155.593 183.012 155.233 182.868C154.877 182.72 154.573 182.51 154.321 182.238C154.069 181.966 153.875 181.638 153.739 181.254C153.607 180.87 153.541 180.438 153.541 179.958C153.541 179.482 153.607 179.052 153.739 178.668C153.875 178.28 154.069 177.95 154.321 177.678C154.573 177.406 154.877 177.196 155.233 177.048C155.593 176.9 155.997 176.826 156.445 176.826ZM156.445 182.25C157.045 182.25 157.493 182.05 157.789 181.65C158.085 181.246 158.233 180.684 158.233 179.964C158.233 179.24 158.085 178.676 157.789 178.272C157.493 177.868 157.045 177.666 156.445 177.666C156.141 177.666 155.875 177.718 155.647 177.822C155.423 177.926 155.235 178.076 155.083 178.272C154.935 178.468 154.823 178.71 154.747 178.998C154.675 179.282 154.639 179.604 154.639 179.964C154.639 180.684 154.787 181.246 155.083 181.65C155.383 182.05 155.837 182.25 156.445 182.25ZM160.692 183V176.922H161.334C161.486 176.922 161.58 176.996 161.616 177.144L161.694 177.768C161.918 177.492 162.17 177.266 162.45 177.09C162.73 176.914 163.054 176.826 163.422 176.826C163.83 176.826 164.16 176.94 164.412 177.168C164.668 177.396 164.852 177.704 164.964 178.092C165.052 177.872 165.164 177.682 165.3 177.522C165.44 177.362 165.596 177.23 165.768 177.126C165.94 177.022 166.122 176.946 166.314 176.898C166.51 176.85 166.708 176.826 166.908 176.826C167.228 176.826 167.512 176.878 167.76 176.982C168.012 177.082 168.224 177.23 168.396 177.426C168.572 177.622 168.706 177.864 168.798 178.152C168.89 178.436 168.936 178.762 168.936 179.13V183H167.862V179.13C167.862 178.654 167.758 178.294 167.55 178.05C167.342 177.802 167.042 177.678 166.65 177.678C166.474 177.678 166.306 177.71 166.146 177.774C165.99 177.834 165.852 177.924 165.732 178.044C165.612 178.164 165.516 178.316 165.444 178.5C165.376 178.68 165.342 178.89 165.342 179.13V183H164.268V179.13C164.268 178.642 164.17 178.278 163.974 178.038C163.778 177.798 163.492 177.678 163.116 177.678C162.852 177.678 162.608 177.75 162.384 177.894C162.16 178.034 161.954 178.226 161.766 178.47V183H160.692ZM176.923 180.264C176.431 180.28 176.011 180.32 175.663 180.384C175.319 180.444 175.037 180.524 174.817 180.624C174.601 180.724 174.443 180.842 174.343 180.978C174.247 181.114 174.199 181.266 174.199 181.434C174.199 181.594 174.225 181.732 174.277 181.848C174.329 181.964 174.399 182.06 174.487 182.136C174.579 182.208 174.685 182.262 174.805 182.298C174.929 182.33 175.061 182.346 175.201 182.346C175.389 182.346 175.561 182.328 175.717 182.292C175.873 182.252 176.019 182.196 176.155 182.124C176.295 182.052 176.427 181.966 176.551 181.866C176.679 181.766 176.803 181.652 176.923 181.524V180.264ZM173.473 177.78C173.809 177.456 174.171 177.214 174.559 177.054C174.947 176.894 175.377 176.814 175.849 176.814C176.189 176.814 176.491 176.87 176.755 176.982C177.019 177.094 177.241 177.25 177.421 177.45C177.601 177.65 177.737 177.892 177.829 178.176C177.921 178.46 177.967 178.772 177.967 179.112V183H177.493C177.389 183 177.309 182.984 177.253 182.952C177.197 182.916 177.153 182.848 177.121 182.748L177.001 182.172C176.841 182.32 176.685 182.452 176.533 182.568C176.381 182.68 176.221 182.776 176.053 182.856C175.885 182.932 175.705 182.99 175.513 183.03C175.325 183.074 175.115 183.096 174.883 183.096C174.647 183.096 174.425 183.064 174.217 183C174.009 182.932 173.827 182.832 173.671 182.7C173.519 182.568 173.397 182.402 173.305 182.202C173.217 181.998 173.173 181.758 173.173 181.482C173.173 181.242 173.239 181.012 173.371 180.792C173.503 180.568 173.717 180.37 174.013 180.198C174.309 180.026 174.695 179.886 175.171 179.778C175.647 179.666 176.231 179.602 176.923 179.586V179.112C176.923 178.64 176.821 178.284 176.617 178.044C176.413 177.8 176.115 177.678 175.723 177.678C175.459 177.678 175.237 177.712 175.057 177.78C174.881 177.844 174.727 177.918 174.595 178.002C174.467 178.082 174.355 178.156 174.259 178.224C174.167 178.288 174.075 178.32 173.983 178.32C173.911 178.32 173.849 178.302 173.797 178.266C173.745 178.226 173.701 178.178 173.665 178.122L173.473 177.78ZM180.602 177.804C180.734 177.656 180.874 177.522 181.022 177.402C181.17 177.282 181.326 177.18 181.49 177.096C181.658 177.008 181.834 176.942 182.018 176.898C182.206 176.85 182.408 176.826 182.624 176.826C182.956 176.826 183.248 176.882 183.5 176.994C183.756 177.102 183.968 177.258 184.136 177.462C184.308 177.662 184.438 177.904 184.526 178.188C184.614 178.472 184.658 178.786 184.658 179.13V183H183.584V179.13C183.584 178.67 183.478 178.314 183.266 178.062C183.058 177.806 182.74 177.678 182.312 177.678C181.996 177.678 181.7 177.754 181.424 177.906C181.152 178.058 180.9 178.264 180.668 178.524V183H179.594V176.922H180.236C180.388 176.922 180.482 176.996 180.518 177.144L180.602 177.804ZM191.377 176.922L187.987 184.794C187.951 184.874 187.905 184.938 187.849 184.986C187.797 185.034 187.715 185.058 187.603 185.058H186.811L187.921 182.646L185.413 176.922H186.337C186.429 176.922 186.501 176.946 186.553 176.994C186.609 177.038 186.647 177.088 186.667 177.144L188.293 180.972C188.357 181.14 188.411 181.316 188.455 181.5C188.511 181.312 188.571 181.134 188.635 180.966L190.213 177.144C190.237 177.08 190.277 177.028 190.333 176.988C190.393 176.944 190.459 176.922 190.531 176.922H191.377ZM200.703 176.922L198.735 183H197.889C197.785 183 197.713 182.932 197.673 182.796L196.329 178.674C196.297 178.582 196.271 178.49 196.251 178.398C196.231 178.302 196.211 178.208 196.191 178.116C196.171 178.208 196.151 178.302 196.131 178.398C196.111 178.49 196.085 178.584 196.053 178.68L194.685 182.796C194.649 182.932 194.569 183 194.445 183H193.641L191.673 176.922H192.513C192.597 176.922 192.667 176.944 192.723 176.988C192.783 177.032 192.823 177.084 192.843 177.144L194.007 181.056C194.075 181.344 194.129 181.616 194.169 181.872C194.205 181.74 194.241 181.606 194.277 181.47C194.317 181.334 194.359 181.196 194.403 181.056L195.687 177.12C195.707 177.06 195.741 177.01 195.789 176.97C195.841 176.93 195.903 176.91 195.975 176.91H196.443C196.523 176.91 196.589 176.93 196.641 176.97C196.693 177.01 196.729 177.06 196.749 177.12L198.003 181.056C198.047 181.196 198.087 181.334 198.123 181.47C198.159 181.606 198.193 181.74 198.225 181.872C198.245 181.74 198.269 181.608 198.297 181.476C198.329 181.34 198.363 181.2 198.399 181.056L199.587 177.144C199.607 177.08 199.645 177.028 199.701 176.988C199.757 176.944 199.823 176.922 199.899 176.922H200.703ZM202.816 177.732C203.076 177.456 203.364 177.236 203.68 177.072C203.996 176.908 204.36 176.826 204.772 176.826C205.104 176.826 205.396 176.882 205.648 176.994C205.904 177.102 206.116 177.258 206.284 177.462C206.456 177.662 206.586 177.904 206.674 178.188C206.762 178.472 206.806 178.786 206.806 179.13V183H205.732V179.13C205.732 178.67 205.626 178.314 205.414 178.062C205.206 177.806 204.888 177.678 204.46 177.678C204.144 177.678 203.848 177.754 203.572 177.906C203.3 178.058 203.048 178.264 202.816 178.524V183H201.742V174.162H202.816V177.732ZM212.502 179.298C212.502 179.05 212.466 178.824 212.394 178.62C212.326 178.412 212.224 178.234 212.088 178.086C211.956 177.934 211.794 177.818 211.602 177.738C211.41 177.654 211.192 177.612 210.948 177.612C210.436 177.612 210.03 177.762 209.73 178.062C209.434 178.358 209.25 178.77 209.178 179.298H212.502ZM213.366 182.148C213.234 182.308 213.076 182.448 212.892 182.568C212.708 182.684 212.51 182.78 212.298 182.856C212.09 182.932 211.874 182.988 211.65 183.024C211.426 183.064 211.204 183.084 210.984 183.084C210.564 183.084 210.176 183.014 209.82 182.874C209.468 182.73 209.162 182.522 208.902 182.25C208.646 181.974 208.446 181.634 208.302 181.23C208.158 180.826 208.086 180.362 208.086 179.838C208.086 179.414 208.15 179.018 208.278 178.65C208.41 178.282 208.598 177.964 208.842 177.696C209.086 177.424 209.384 177.212 209.736 177.06C210.088 176.904 210.484 176.826 210.924 176.826C211.288 176.826 211.624 176.888 211.932 177.012C212.244 177.132 212.512 177.308 212.736 177.54C212.964 177.768 213.142 178.052 213.27 178.392C213.398 178.728 213.462 179.112 213.462 179.544C213.462 179.712 213.444 179.824 213.408 179.88C213.372 179.936 213.304 179.964 213.204 179.964H209.142C209.154 180.348 209.206 180.682 209.298 180.966C209.394 181.25 209.526 181.488 209.694 181.68C209.862 181.868 210.062 182.01 210.294 182.106C210.526 182.198 210.786 182.244 211.074 182.244C211.342 182.244 211.572 182.214 211.764 182.154C211.96 182.09 212.128 182.022 212.268 181.95C212.408 181.878 212.524 181.812 212.616 181.752C212.712 181.688 212.794 181.656 212.862 181.656C212.95 181.656 213.018 181.69 213.066 181.758L213.366 182.148ZM215.788 178.14C215.98 177.724 216.216 177.4 216.496 177.168C216.776 176.932 217.118 176.814 217.522 176.814C217.65 176.814 217.772 176.828 217.888 176.856C218.008 176.884 218.114 176.928 218.206 176.988L218.128 177.786C218.104 177.886 218.044 177.936 217.948 177.936C217.892 177.936 217.81 177.924 217.702 177.9C217.594 177.876 217.472 177.864 217.336 177.864C217.144 177.864 216.972 177.892 216.82 177.948C216.672 178.004 216.538 178.088 216.418 178.2C216.302 178.308 216.196 178.444 216.1 178.608C216.008 178.768 215.924 178.952 215.848 179.16V183H214.774V176.922H215.386C215.502 176.922 215.582 176.944 215.626 176.988C215.67 177.032 215.7 177.108 215.716 177.216L215.788 178.14ZM222.967 179.298C222.967 179.05 222.931 178.824 222.859 178.62C222.791 178.412 222.689 178.234 222.553 178.086C222.421 177.934 222.259 177.818 222.067 177.738C221.875 177.654 221.657 177.612 221.413 177.612C220.901 177.612 220.495 177.762 220.195 178.062C219.899 178.358 219.715 178.77 219.643 179.298H222.967ZM223.831 182.148C223.699 182.308 223.541 182.448 223.357 182.568C223.173 182.684 222.975 182.78 222.763 182.856C222.555 182.932 222.339 182.988 222.115 183.024C221.891 183.064 221.669 183.084 221.449 183.084C221.029 183.084 220.641 183.014 220.285 182.874C219.933 182.73 219.627 182.522 219.367 182.25C219.111 181.974 218.911 181.634 218.767 181.23C218.623 180.826 218.551 180.362 218.551 179.838C218.551 179.414 218.615 179.018 218.743 178.65C218.875 178.282 219.063 177.964 219.307 177.696C219.551 177.424 219.849 177.212 220.201 177.06C220.553 176.904 220.949 176.826 221.389 176.826C221.753 176.826 222.089 176.888 222.397 177.012C222.709 177.132 222.977 177.308 223.201 177.54C223.429 177.768 223.607 178.052 223.735 178.392C223.863 178.728 223.927 179.112 223.927 179.544C223.927 179.712 223.909 179.824 223.873 179.88C223.837 179.936 223.769 179.964 223.669 179.964H219.607C219.619 180.348 219.671 180.682 219.763 180.966C219.859 181.25 219.991 181.488 220.159 181.68C220.327 181.868 220.527 182.01 220.759 182.106C220.991 182.198 221.251 182.244 221.539 182.244C221.807 182.244 222.037 182.214 222.229 182.154C222.425 182.09 222.593 182.022 222.733 181.95C222.873 181.878 222.989 181.812 223.081 181.752C223.177 181.688 223.259 181.656 223.327 181.656C223.415 181.656 223.483 181.69 223.531 181.758L223.831 182.148ZM62.5033 190.922V197H61.4353V190.922H62.5033ZM62.7313 189.014C62.7313 189.118 62.7093 189.216 62.6653 189.308C62.6253 189.396 62.5693 189.476 62.4973 189.548C62.4293 189.616 62.3473 189.67 62.2513 189.71C62.1593 189.75 62.0613 189.77 61.9573 189.77C61.8533 189.77 61.7553 189.75 61.6633 189.71C61.5753 189.67 61.4973 189.616 61.4293 189.548C61.3613 189.476 61.3073 189.396 61.2673 189.308C61.2273 189.216 61.2073 189.118 61.2073 189.014C61.2073 188.91 61.2273 188.812 61.2673 188.72C61.3073 188.624 61.3613 188.542 61.4293 188.474C61.4973 188.402 61.5753 188.346 61.6633 188.306C61.7553 188.266 61.8533 188.246 61.9573 188.246C62.0613 188.246 62.1593 188.266 62.2513 188.306C62.3473 188.346 62.4293 188.402 62.4973 188.474C62.5693 188.542 62.6253 188.624 62.6653 188.72C62.7093 188.812 62.7313 188.91 62.7313 189.014ZM65.2661 191.804C65.3981 191.656 65.5381 191.522 65.6861 191.402C65.8341 191.282 65.9901 191.18 66.1541 191.096C66.3221 191.008 66.4981 190.942 66.6821 190.898C66.8701 190.85 67.0721 190.826 67.2881 190.826C67.6201 190.826 67.9121 190.882 68.1641 190.994C68.4201 191.102 68.6321 191.258 68.8001 191.462C68.9721 191.662 69.1021 191.904 69.1901 192.188C69.2781 192.472 69.3221 192.786 69.3221 193.13V197H68.2481V193.13C68.2481 192.67 68.1421 192.314 67.9301 192.062C67.7221 191.806 67.4041 191.678 66.9761 191.678C66.6601 191.678 66.3641 191.754 66.0881 191.906C65.8161 192.058 65.5641 192.264 65.3321 192.524V197H64.2581V190.922H64.9001C65.0521 190.922 65.1461 190.996 65.1821 191.144L65.2661 191.804ZM75.8858 197.096C75.4058 197.096 75.0358 196.962 74.7758 196.694C74.5198 196.426 74.3918 196.04 74.3918 195.536V191.816H73.6598C73.5958 191.816 73.5418 191.798 73.4978 191.762C73.4538 191.722 73.4318 191.662 73.4318 191.582V191.156L74.4278 191.03L74.6738 189.152C74.6858 189.092 74.7118 189.044 74.7518 189.008C74.7958 188.968 74.8518 188.948 74.9198 188.948H75.4598V191.042H77.2178V191.816H75.4598V195.464C75.4598 195.72 75.5218 195.91 75.6458 196.034C75.7698 196.158 75.9298 196.22 76.1258 196.22C76.2378 196.22 76.3338 196.206 76.4138 196.178C76.4978 196.146 76.5698 196.112 76.6298 196.076C76.6898 196.04 76.7398 196.008 76.7798 195.98C76.8238 195.948 76.8618 195.932 76.8938 195.932C76.9498 195.932 76.9998 195.966 77.0438 196.034L77.3558 196.544C77.1718 196.716 76.9498 196.852 76.6898 196.952C76.4298 197.048 76.1618 197.096 75.8858 197.096ZM79.3946 191.732C79.6546 191.456 79.9426 191.236 80.2586 191.072C80.5746 190.908 80.9386 190.826 81.3506 190.826C81.6826 190.826 81.9746 190.882 82.2266 190.994C82.4826 191.102 82.6946 191.258 82.8626 191.462C83.0346 191.662 83.1646 191.904 83.2526 192.188C83.3406 192.472 83.3846 192.786 83.3846 193.13V197H82.3106V193.13C82.3106 192.67 82.2046 192.314 81.9926 192.062C81.7846 191.806 81.4666 191.678 81.0386 191.678C80.7226 191.678 80.4266 191.754 80.1506 191.906C79.8786 192.058 79.6266 192.264 79.3946 192.524V197H78.3206V188.162H79.3946V191.732ZM89.08 193.298C89.08 193.05 89.044 192.824 88.972 192.62C88.904 192.412 88.802 192.234 88.666 192.086C88.534 191.934 88.372 191.818 88.18 191.738C87.988 191.654 87.77 191.612 87.526 191.612C87.014 191.612 86.608 191.762 86.308 192.062C86.012 192.358 85.828 192.77 85.756 193.298H89.08ZM89.944 196.148C89.812 196.308 89.654 196.448 89.47 196.568C89.286 196.684 89.088 196.78 88.876 196.856C88.668 196.932 88.452 196.988 88.228 197.024C88.004 197.064 87.782 197.084 87.562 197.084C87.142 197.084 86.754 197.014 86.398 196.874C86.046 196.73 85.74 196.522 85.48 196.25C85.224 195.974 85.024 195.634 84.88 195.23C84.736 194.826 84.664 194.362 84.664 193.838C84.664 193.414 84.728 193.018 84.856 192.65C84.988 192.282 85.176 191.964 85.42 191.696C85.664 191.424 85.962 191.212 86.314 191.06C86.666 190.904 87.062 190.826 87.502 190.826C87.866 190.826 88.202 190.888 88.51 191.012C88.822 191.132 89.09 191.308 89.314 191.54C89.542 191.768 89.72 192.052 89.848 192.392C89.976 192.728 90.04 193.112 90.04 193.544C90.04 193.712 90.022 193.824 89.986 193.88C89.95 193.936 89.882 193.964 89.782 193.964H85.72C85.732 194.348 85.784 194.682 85.876 194.966C85.972 195.25 86.104 195.488 86.272 195.68C86.44 195.868 86.64 196.01 86.872 196.106C87.104 196.198 87.364 196.244 87.652 196.244C87.92 196.244 88.15 196.214 88.342 196.154C88.538 196.09 88.706 196.022 88.846 195.95C88.986 195.878 89.102 195.812 89.194 195.752C89.29 195.688 89.372 195.656 89.44 195.656C89.528 195.656 89.596 195.69 89.644 195.758L89.944 196.148ZM102.558 190.922L100.59 197H99.7441C99.6401 197 99.5681 196.932 99.5281 196.796L98.1841 192.674C98.1521 192.582 98.1261 192.49 98.1061 192.398C98.0861 192.302 98.0661 192.208 98.0461 192.116C98.0261 192.208 98.0061 192.302 97.9861 192.398C97.9661 192.49 97.9401 192.584 97.9081 192.68L96.5401 196.796C96.5041 196.932 96.4241 197 96.3001 197H95.4961L93.5281 190.922H94.3681C94.4521 190.922 94.5221 190.944 94.5781 190.988C94.6381 191.032 94.6781 191.084 94.6981 191.144L95.8621 195.056C95.9301 195.344 95.9841 195.616 96.0241 195.872C96.0601 195.74 96.0961 195.606 96.1321 195.47C96.1721 195.334 96.2141 195.196 96.2581 195.056L97.5421 191.12C97.5621 191.06 97.5961 191.01 97.6441 190.97C97.6961 190.93 97.7581 190.91 97.8301 190.91H98.2981C98.3781 190.91 98.4441 190.93 98.4961 190.97C98.5481 191.01 98.5841 191.06 98.6041 191.12L99.8581 195.056C99.9021 195.196 99.9421 195.334 99.9781 195.47C100.014 195.606 100.048 195.74 100.08 195.872C100.1 195.74 100.124 195.608 100.152 195.476C100.184 195.34 100.218 195.2 100.254 195.056L101.442 191.144C101.462 191.08 101.5 191.028 101.556 190.988C101.612 190.944 101.678 190.922 101.754 190.922H102.558ZM106.078 190.826C106.522 190.826 106.922 190.9 107.278 191.048C107.634 191.196 107.938 191.406 108.19 191.678C108.442 191.95 108.634 192.28 108.766 192.668C108.902 193.052 108.97 193.482 108.97 193.958C108.97 194.438 108.902 194.87 108.766 195.254C108.634 195.638 108.442 195.966 108.19 196.238C107.938 196.51 107.634 196.72 107.278 196.868C106.922 197.012 106.522 197.084 106.078 197.084C105.63 197.084 105.226 197.012 104.866 196.868C104.51 196.72 104.206 196.51 103.954 196.238C103.702 195.966 103.508 195.638 103.372 195.254C103.24 194.87 103.174 194.438 103.174 193.958C103.174 193.482 103.24 193.052 103.372 192.668C103.508 192.28 103.702 191.95 103.954 191.678C104.206 191.406 104.51 191.196 104.866 191.048C105.226 190.9 105.63 190.826 106.078 190.826ZM106.078 196.25C106.678 196.25 107.126 196.05 107.422 195.65C107.718 195.246 107.866 194.684 107.866 193.964C107.866 193.24 107.718 192.676 107.422 192.272C107.126 191.868 106.678 191.666 106.078 191.666C105.774 191.666 105.508 191.718 105.28 191.822C105.056 191.926 104.868 192.076 104.716 192.272C104.568 192.468 104.456 192.71 104.38 192.998C104.308 193.282 104.272 193.604 104.272 193.964C104.272 194.684 104.42 195.246 104.716 195.65C105.016 196.05 105.47 196.25 106.078 196.25ZM111.339 192.14C111.531 191.724 111.767 191.4 112.047 191.168C112.327 190.932 112.669 190.814 113.073 190.814C113.201 190.814 113.323 190.828 113.439 190.856C113.559 190.884 113.665 190.928 113.757 190.988L113.679 191.786C113.655 191.886 113.595 191.936 113.499 191.936C113.443 191.936 113.361 191.924 113.253 191.9C113.145 191.876 113.023 191.864 112.887 191.864C112.695 191.864 112.523 191.892 112.371 191.948C112.223 192.004 112.089 192.088 111.969 192.2C111.853 192.308 111.747 192.444 111.651 192.608C111.559 192.768 111.475 192.952 111.399 193.16V197H110.325V190.922H110.937C111.053 190.922 111.133 190.944 111.177 190.988C111.221 191.032 111.251 191.108 111.267 191.216L111.339 192.14ZM115.8 188.162V197H114.732V188.162H115.8ZM121.492 192.368C121.292 192.1 121.076 191.914 120.844 191.81C120.612 191.702 120.352 191.648 120.064 191.648C119.5 191.648 119.066 191.85 118.762 192.254C118.458 192.658 118.306 193.234 118.306 193.982C118.306 194.378 118.34 194.718 118.408 195.002C118.476 195.282 118.576 195.514 118.708 195.698C118.84 195.878 119.002 196.01 119.194 196.094C119.386 196.178 119.604 196.22 119.848 196.22C120.2 196.22 120.506 196.14 120.766 195.98C121.03 195.82 121.272 195.594 121.492 195.302V192.368ZM122.56 188.162V197H121.924C121.772 197 121.676 196.926 121.636 196.778L121.54 196.04C121.28 196.352 120.984 196.604 120.652 196.796C120.32 196.988 119.936 197.084 119.5 197.084C119.152 197.084 118.836 197.018 118.552 196.886C118.268 196.75 118.026 196.552 117.826 196.292C117.626 196.032 117.472 195.708 117.364 195.32C117.256 194.932 117.202 194.486 117.202 193.982C117.202 193.534 117.262 193.118 117.382 192.734C117.502 192.346 117.674 192.01 117.898 191.726C118.122 191.442 118.396 191.22 118.72 191.06C119.048 190.896 119.416 190.814 119.824 190.814C120.196 190.814 120.514 190.878 120.778 191.006C121.046 191.13 121.284 191.304 121.492 191.528V188.162H122.56ZM129.879 190.826C130.323 190.826 130.723 190.9 131.079 191.048C131.435 191.196 131.739 191.406 131.991 191.678C132.243 191.95 132.435 192.28 132.567 192.668C132.703 193.052 132.771 193.482 132.771 193.958C132.771 194.438 132.703 194.87 132.567 195.254C132.435 195.638 132.243 195.966 131.991 196.238C131.739 196.51 131.435 196.72 131.079 196.868C130.723 197.012 130.323 197.084 129.879 197.084C129.431 197.084 129.027 197.012 128.667 196.868C128.311 196.72 128.007 196.51 127.755 196.238C127.503 195.966 127.309 195.638 127.173 195.254C127.041 194.87 126.975 194.438 126.975 193.958C126.975 193.482 127.041 193.052 127.173 192.668C127.309 192.28 127.503 191.95 127.755 191.678C128.007 191.406 128.311 191.196 128.667 191.048C129.027 190.9 129.431 190.826 129.879 190.826ZM129.879 196.25C130.479 196.25 130.927 196.05 131.223 195.65C131.519 195.246 131.667 194.684 131.667 193.964C131.667 193.24 131.519 192.676 131.223 192.272C130.927 191.868 130.479 191.666 129.879 191.666C129.575 191.666 129.309 191.718 129.081 191.822C128.857 191.926 128.669 192.076 128.517 192.272C128.369 192.468 128.257 192.71 128.181 192.998C128.109 193.282 128.073 193.604 128.073 193.964C128.073 194.684 128.221 195.246 128.517 195.65C128.817 196.05 129.271 196.25 129.879 196.25ZM135.133 191.804C135.265 191.656 135.405 191.522 135.553 191.402C135.701 191.282 135.857 191.18 136.021 191.096C136.189 191.008 136.365 190.942 136.549 190.898C136.737 190.85 136.939 190.826 137.155 190.826C137.487 190.826 137.779 190.882 138.031 190.994C138.287 191.102 138.499 191.258 138.667 191.462C138.839 191.662 138.969 191.904 139.057 192.188C139.145 192.472 139.189 192.786 139.189 193.13V197H138.115V193.13C138.115 192.67 138.009 192.314 137.797 192.062C137.589 191.806 137.271 191.678 136.843 191.678C136.527 191.678 136.231 191.754 135.955 191.906C135.683 192.058 135.431 192.264 135.199 192.524V197H134.125V190.922H134.767C134.919 190.922 135.013 190.996 135.049 191.144L135.133 191.804ZM147.181 194.264C146.689 194.28 146.269 194.32 145.921 194.384C145.577 194.444 145.295 194.524 145.075 194.624C144.859 194.724 144.701 194.842 144.601 194.978C144.505 195.114 144.457 195.266 144.457 195.434C144.457 195.594 144.483 195.732 144.535 195.848C144.587 195.964 144.657 196.06 144.745 196.136C144.837 196.208 144.943 196.262 145.063 196.298C145.187 196.33 145.319 196.346 145.459 196.346C145.647 196.346 145.819 196.328 145.975 196.292C146.131 196.252 146.277 196.196 146.413 196.124C146.553 196.052 146.685 195.966 146.809 195.866C146.937 195.766 147.061 195.652 147.181 195.524V194.264ZM143.731 191.78C144.067 191.456 144.429 191.214 144.817 191.054C145.205 190.894 145.635 190.814 146.107 190.814C146.447 190.814 146.749 190.87 147.013 190.982C147.277 191.094 147.499 191.25 147.679 191.45C147.859 191.65 147.995 191.892 148.087 192.176C148.179 192.46 148.225 192.772 148.225 193.112V197H147.751C147.647 197 147.567 196.984 147.511 196.952C147.455 196.916 147.411 196.848 147.379 196.748L147.259 196.172C147.099 196.32 146.943 196.452 146.791 196.568C146.639 196.68 146.479 196.776 146.311 196.856C146.143 196.932 145.963 196.99 145.771 197.03C145.583 197.074 145.373 197.096 145.141 197.096C144.905 197.096 144.683 197.064 144.475 197C144.267 196.932 144.085 196.832 143.929 196.7C143.777 196.568 143.655 196.402 143.563 196.202C143.475 195.998 143.431 195.758 143.431 195.482C143.431 195.242 143.497 195.012 143.629 194.792C143.761 194.568 143.975 194.37 144.271 194.198C144.567 194.026 144.953 193.886 145.429 193.778C145.905 193.666 146.489 193.602 147.181 193.586V193.112C147.181 192.64 147.079 192.284 146.875 192.044C146.671 191.8 146.373 191.678 145.981 191.678C145.717 191.678 145.495 191.712 145.315 191.78C145.139 191.844 144.985 191.918 144.853 192.002C144.725 192.082 144.613 192.156 144.517 192.224C144.425 192.288 144.333 192.32 144.241 192.32C144.169 192.32 144.107 192.302 144.055 192.266C144.003 192.226 143.959 192.178 143.923 192.122L143.731 191.78ZM150.86 191.804C150.992 191.656 151.132 191.522 151.28 191.402C151.428 191.282 151.584 191.18 151.748 191.096C151.916 191.008 152.092 190.942 152.276 190.898C152.464 190.85 152.666 190.826 152.882 190.826C153.214 190.826 153.506 190.882 153.758 190.994C154.014 191.102 154.226 191.258 154.394 191.462C154.566 191.662 154.696 191.904 154.784 192.188C154.872 192.472 154.916 192.786 154.916 193.13V197H153.842V193.13C153.842 192.67 153.736 192.314 153.524 192.062C153.316 191.806 152.998 191.678 152.57 191.678C152.254 191.678 151.958 191.754 151.682 191.906C151.41 192.058 151.158 192.264 150.926 192.524V197H149.852V190.922H150.494C150.646 190.922 150.74 190.996 150.776 191.144L150.86 191.804ZM161.635 190.922L158.245 198.794C158.209 198.874 158.163 198.938 158.107 198.986C158.055 199.034 157.973 199.058 157.861 199.058H157.069L158.179 196.646L155.671 190.922H156.595C156.687 190.922 156.759 190.946 156.811 190.994C156.867 191.038 156.905 191.088 156.925 191.144L158.551 194.972C158.615 195.14 158.669 195.316 158.713 195.5C158.769 195.312 158.829 195.134 158.893 194.966L160.471 191.144C160.495 191.08 160.535 191.028 160.591 190.988C160.651 190.944 160.717 190.922 160.789 190.922H161.635ZM169.316 192.368C169.116 192.1 168.9 191.914 168.668 191.81C168.436 191.702 168.176 191.648 167.888 191.648C167.324 191.648 166.89 191.85 166.586 192.254C166.282 192.658 166.13 193.234 166.13 193.982C166.13 194.378 166.164 194.718 166.232 195.002C166.3 195.282 166.4 195.514 166.532 195.698C166.664 195.878 166.826 196.01 167.018 196.094C167.21 196.178 167.428 196.22 167.672 196.22C168.024 196.22 168.33 196.14 168.59 195.98C168.854 195.82 169.096 195.594 169.316 195.302V192.368ZM170.384 188.162V197H169.748C169.596 197 169.5 196.926 169.46 196.778L169.364 196.04C169.104 196.352 168.808 196.604 168.476 196.796C168.144 196.988 167.76 197.084 167.324 197.084C166.976 197.084 166.66 197.018 166.376 196.886C166.092 196.75 165.85 196.552 165.65 196.292C165.45 196.032 165.296 195.708 165.188 195.32C165.08 194.932 165.026 194.486 165.026 193.982C165.026 193.534 165.086 193.118 165.206 192.734C165.326 192.346 165.498 192.01 165.722 191.726C165.946 191.442 166.22 191.22 166.544 191.06C166.872 190.896 167.24 190.814 167.648 190.814C168.02 190.814 168.338 190.878 168.602 191.006C168.87 191.13 169.108 191.304 169.316 191.528V188.162H170.384ZM176.139 193.298C176.139 193.05 176.103 192.824 176.031 192.62C175.963 192.412 175.861 192.234 175.725 192.086C175.593 191.934 175.431 191.818 175.239 191.738C175.047 191.654 174.829 191.612 174.585 191.612C174.073 191.612 173.667 191.762 173.367 192.062C173.071 192.358 172.887 192.77 172.815 193.298H176.139ZM177.003 196.148C176.871 196.308 176.713 196.448 176.529 196.568C176.345 196.684 176.147 196.78 175.935 196.856C175.727 196.932 175.511 196.988 175.287 197.024C175.063 197.064 174.841 197.084 174.621 197.084C174.201 197.084 173.813 197.014 173.457 196.874C173.105 196.73 172.799 196.522 172.539 196.25C172.283 195.974 172.083 195.634 171.939 195.23C171.795 194.826 171.723 194.362 171.723 193.838C171.723 193.414 171.787 193.018 171.915 192.65C172.047 192.282 172.235 191.964 172.479 191.696C172.723 191.424 173.021 191.212 173.373 191.06C173.725 190.904 174.121 190.826 174.561 190.826C174.925 190.826 175.261 190.888 175.569 191.012C175.881 191.132 176.149 191.308 176.373 191.54C176.601 191.768 176.779 192.052 176.907 192.392C177.035 192.728 177.099 193.112 177.099 193.544C177.099 193.712 177.081 193.824 177.045 193.88C177.009 193.936 176.941 193.964 176.841 193.964H172.779C172.791 194.348 172.843 194.682 172.935 194.966C173.031 195.25 173.163 195.488 173.331 195.68C173.499 195.868 173.699 196.01 173.931 196.106C174.163 196.198 174.423 196.244 174.711 196.244C174.979 196.244 175.209 196.214 175.401 196.154C175.597 196.09 175.765 196.022 175.905 195.95C176.045 195.878 176.161 195.812 176.253 195.752C176.349 195.688 176.431 195.656 176.499 195.656C176.587 195.656 176.655 195.69 176.703 195.758L177.003 196.148ZM183.49 190.922L181.012 197H180.052L177.574 190.922H178.444C178.532 190.922 178.604 190.944 178.66 190.988C178.716 191.032 178.754 191.084 178.774 191.144L180.316 195.056C180.364 195.204 180.406 195.348 180.442 195.488C180.478 195.628 180.512 195.768 180.544 195.908C180.576 195.768 180.61 195.628 180.646 195.488C180.682 195.348 180.726 195.204 180.778 195.056L182.338 191.144C182.362 191.08 182.402 191.028 182.458 190.988C182.514 190.944 182.58 190.922 182.656 190.922H183.49ZM185.597 190.922V197H184.529V190.922H185.597ZM185.825 189.014C185.825 189.118 185.803 189.216 185.759 189.308C185.719 189.396 185.663 189.476 185.591 189.548C185.523 189.616 185.441 189.67 185.345 189.71C185.253 189.75 185.155 189.77 185.051 189.77C184.947 189.77 184.849 189.75 184.757 189.71C184.669 189.67 184.591 189.616 184.523 189.548C184.455 189.476 184.401 189.396 184.361 189.308C184.321 189.216 184.301 189.118 184.301 189.014C184.301 188.91 184.321 188.812 184.361 188.72C184.401 188.624 184.455 188.542 184.523 188.474C184.591 188.402 184.669 188.346 184.757 188.306C184.849 188.266 184.947 188.246 185.051 188.246C185.155 188.246 185.253 188.266 185.345 188.306C185.441 188.346 185.523 188.402 185.591 188.474C185.663 188.542 185.719 188.624 185.759 188.72C185.803 188.812 185.825 188.91 185.825 189.014ZM191.582 192.002C191.55 192.046 191.518 192.08 191.486 192.104C191.454 192.128 191.41 192.14 191.354 192.14C191.294 192.14 191.228 192.116 191.156 192.068C191.084 192.016 190.994 191.96 190.886 191.9C190.782 191.84 190.652 191.786 190.496 191.738C190.344 191.686 190.156 191.66 189.932 191.66C189.632 191.66 189.368 191.714 189.14 191.822C188.912 191.926 188.72 192.078 188.564 192.278C188.412 192.478 188.296 192.72 188.216 193.004C188.14 193.288 188.102 193.606 188.102 193.958C188.102 194.326 188.144 194.654 188.228 194.942C188.312 195.226 188.43 195.466 188.582 195.662C188.738 195.854 188.924 196.002 189.14 196.106C189.36 196.206 189.606 196.256 189.878 196.256C190.138 196.256 190.352 196.226 190.52 196.166C190.688 196.102 190.826 196.032 190.934 195.956C191.046 195.88 191.138 195.812 191.21 195.752C191.286 195.688 191.36 195.656 191.432 195.656C191.52 195.656 191.588 195.69 191.636 195.758L191.936 196.148C191.804 196.312 191.654 196.452 191.486 196.568C191.318 196.684 191.136 196.782 190.94 196.862C190.748 196.938 190.546 196.994 190.334 197.03C190.122 197.066 189.906 197.084 189.686 197.084C189.306 197.084 188.952 197.014 188.624 196.874C188.3 196.734 188.018 196.532 187.778 196.268C187.538 196 187.35 195.672 187.214 195.284C187.078 194.896 187.01 194.454 187.01 193.958C187.01 193.506 187.072 193.088 187.196 192.704C187.324 192.32 187.508 191.99 187.748 191.714C187.992 191.434 188.29 191.216 188.642 191.06C188.998 190.904 189.406 190.826 189.866 190.826C190.294 190.826 190.67 190.896 190.994 191.036C191.322 191.172 191.612 191.366 191.864 191.618L191.582 192.002ZM197.045 193.298C197.045 193.05 197.009 192.824 196.937 192.62C196.869 192.412 196.767 192.234 196.631 192.086C196.499 191.934 196.337 191.818 196.145 191.738C195.953 191.654 195.735 191.612 195.491 191.612C194.979 191.612 194.573 191.762 194.273 192.062C193.977 192.358 193.793 192.77 193.721 193.298H197.045ZM197.909 196.148C197.777 196.308 197.619 196.448 197.435 196.568C197.251 196.684 197.053 196.78 196.841 196.856C196.633 196.932 196.417 196.988 196.193 197.024C195.969 197.064 195.747 197.084 195.527 197.084C195.107 197.084 194.719 197.014 194.363 196.874C194.011 196.73 193.705 196.522 193.445 196.25C193.189 195.974 192.989 195.634 192.845 195.23C192.701 194.826 192.629 194.362 192.629 193.838C192.629 193.414 192.693 193.018 192.821 192.65C192.953 192.282 193.141 191.964 193.385 191.696C193.629 191.424 193.927 191.212 194.279 191.06C194.631 190.904 195.027 190.826 195.467 190.826C195.831 190.826 196.167 190.888 196.475 191.012C196.787 191.132 197.055 191.308 197.279 191.54C197.507 191.768 197.685 192.052 197.813 192.392C197.941 192.728 198.005 193.112 198.005 193.544C198.005 193.712 197.987 193.824 197.951 193.88C197.915 193.936 197.847 193.964 197.747 193.964H193.685C193.697 194.348 193.749 194.682 193.841 194.966C193.937 195.25 194.069 195.488 194.237 195.68C194.405 195.868 194.605 196.01 194.837 196.106C195.069 196.198 195.329 196.244 195.617 196.244C195.885 196.244 196.115 196.214 196.307 196.154C196.503 196.09 196.671 196.022 196.811 195.95C196.951 195.878 197.067 195.812 197.159 195.752C197.255 195.688 197.337 195.656 197.405 195.656C197.493 195.656 197.561 195.69 197.609 195.758L197.909 196.148Z" fill="black"/>
<path d="M81.5921 153.931C81.7241 153.931 81.8411 153.982 81.9431 154.084L82.8971 155.119C82.3691 155.773 81.7181 156.274 80.9441 156.622C80.1761 156.97 79.2521 157.144 78.1721 157.144C77.2061 157.144 76.3361 156.979 75.5621 156.649C74.7941 156.319 74.1371 155.86 73.5911 155.272C73.0451 154.684 72.6251 153.982 72.3311 153.166C72.0431 152.35 71.8991 151.459 71.8991 150.493C71.8991 149.515 72.0551 148.621 72.3671 147.811C72.6791 146.995 73.1171 146.293 73.6811 145.705C74.2511 145.117 74.9291 144.661 75.7151 144.337C76.5011 144.007 77.3711 143.842 78.3251 143.842C79.2731 143.842 80.1131 143.998 80.8451 144.31C81.5831 144.622 82.2101 145.03 82.7261 145.534L81.9161 146.659C81.8681 146.731 81.8051 146.794 81.7271 146.848C81.6551 146.902 81.5531 146.929 81.4211 146.929C81.3311 146.929 81.2381 146.905 81.1421 146.857C81.0461 146.803 80.9411 146.74 80.8271 146.668C80.7131 146.59 80.5811 146.506 80.4311 146.416C80.2811 146.326 80.1071 146.245 79.9091 146.173C79.7111 146.095 79.4801 146.032 79.2161 145.984C78.9581 145.93 78.6581 145.903 78.3161 145.903C77.7341 145.903 77.2001 146.008 76.7141 146.218C76.2341 146.422 75.8201 146.722 75.4721 147.118C75.1241 147.508 74.8541 147.988 74.6621 148.558C74.4701 149.122 74.3741 149.767 74.3741 150.493C74.3741 151.225 74.4761 151.876 74.6801 152.446C74.8901 153.016 75.1721 153.496 75.5261 153.886C75.8801 154.276 76.2971 154.576 76.7771 154.786C77.2571 154.99 77.7731 155.092 78.3251 155.092C78.6551 155.092 78.9521 155.074 79.2161 155.038C79.4861 155.002 79.7321 154.945 79.9541 154.867C80.1821 154.789 80.3951 154.69 80.5931 154.57C80.7971 154.444 80.9981 154.291 81.1961 154.111C81.2561 154.057 81.3191 154.015 81.3851 153.985C81.4511 153.949 81.5201 153.931 81.5921 153.931ZM86.4544 143.626V157H84.2314V143.626H86.4544ZM92.7553 147.622C93.4393 147.622 94.0603 147.733 94.6183 147.955C95.1823 148.177 95.6623 148.492 96.0583 148.9C96.4603 149.308 96.7693 149.806 96.9853 150.394C97.2013 150.982 97.3093 151.639 97.3093 152.365C97.3093 153.097 97.2013 153.757 96.9853 154.345C96.7693 154.933 96.4603 155.434 96.0583 155.848C95.6623 156.262 95.1823 156.58 94.6183 156.802C94.0603 157.024 93.4393 157.135 92.7553 157.135C92.0653 157.135 91.4383 157.024 90.8743 156.802C90.3103 156.58 89.8273 156.262 89.4253 155.848C89.0293 155.434 88.7203 154.933 88.4983 154.345C88.2823 153.757 88.1743 153.097 88.1743 152.365C88.1743 151.639 88.2823 150.982 88.4983 150.394C88.7203 149.806 89.0293 149.308 89.4253 148.9C89.8273 148.492 90.3103 148.177 90.8743 147.955C91.4383 147.733 92.0653 147.622 92.7553 147.622ZM92.7553 155.425C93.5233 155.425 94.0903 155.167 94.4563 154.651C94.8283 154.135 95.0143 153.379 95.0143 152.383C95.0143 151.387 94.8283 150.628 94.4563 150.106C94.0903 149.584 93.5233 149.323 92.7553 149.323C91.9753 149.323 91.3963 149.587 91.0183 150.115C90.6463 150.637 90.4603 151.393 90.4603 152.383C90.4603 153.373 90.6463 154.129 91.0183 154.651C91.3963 155.167 91.9753 155.425 92.7553 155.425ZM106.961 147.766V157H105.602C105.308 157 105.122 156.865 105.044 156.595L104.891 155.857C104.513 156.241 104.096 156.553 103.64 156.793C103.184 157.027 102.647 157.144 102.029 157.144C101.525 157.144 101.078 157.06 100.688 156.892C100.304 156.718 99.9802 156.475 99.7162 156.163C99.4522 155.851 99.2512 155.482 99.1132 155.056C98.9812 154.624 98.9152 154.15 98.9152 153.634V147.766H101.138V153.634C101.138 154.198 101.267 154.636 101.525 154.948C101.789 155.254 102.182 155.407 102.704 155.407C103.088 155.407 103.448 155.323 103.784 155.155C104.12 154.981 104.438 154.744 104.738 154.444V147.766H106.961ZM114.961 150.124C114.709 149.818 114.433 149.602 114.133 149.476C113.839 149.35 113.521 149.287 113.179 149.287C112.843 149.287 112.54 149.35 112.27 149.476C112 149.602 111.769 149.794 111.577 150.052C111.385 150.304 111.238 150.628 111.136 151.024C111.034 151.414 110.983 151.876 110.983 152.41C110.983 152.95 111.025 153.409 111.109 153.787C111.199 154.159 111.325 154.465 111.487 154.705C111.649 154.939 111.847 155.11 112.081 155.218C112.315 155.32 112.576 155.371 112.864 155.371C113.326 155.371 113.719 155.275 114.043 155.083C114.367 154.891 114.673 154.618 114.961 154.264V150.124ZM117.184 143.626V157H115.825C115.531 157 115.345 156.865 115.267 156.595L115.078 155.704C114.706 156.13 114.277 156.475 113.791 156.739C113.311 157.003 112.75 157.135 112.108 157.135C111.604 157.135 111.142 157.03 110.722 156.82C110.302 156.61 109.939 156.307 109.633 155.911C109.333 155.509 109.099 155.014 108.931 154.426C108.769 153.838 108.688 153.166 108.688 152.41C108.688 151.726 108.781 151.09 108.967 150.502C109.153 149.914 109.42 149.404 109.768 148.972C110.116 148.54 110.533 148.204 111.019 147.964C111.505 147.718 112.051 147.595 112.657 147.595C113.173 147.595 113.614 147.676 113.98 147.838C114.346 148 114.673 148.219 114.961 148.495V143.626H117.184ZM131.036 146.353C130.964 146.479 130.886 146.572 130.802 146.632C130.724 146.686 130.625 146.713 130.505 146.713C130.379 146.713 130.241 146.668 130.091 146.578C129.947 146.482 129.773 146.377 129.569 146.263C129.365 146.149 129.125 146.047 128.849 145.957C128.579 145.861 128.258 145.813 127.886 145.813C127.55 145.813 127.256 145.855 127.004 145.939C126.752 146.017 126.539 146.128 126.365 146.272C126.197 146.416 126.071 146.59 125.987 146.794C125.903 146.992 125.861 147.211 125.861 147.451C125.861 147.757 125.945 148.012 126.113 148.216C126.287 148.42 126.515 148.594 126.797 148.738C127.079 148.882 127.4 149.011 127.76 149.125C128.12 149.239 128.489 149.362 128.867 149.494C129.245 149.62 129.614 149.77 129.974 149.944C130.334 150.112 130.655 150.328 130.937 150.592C131.219 150.85 131.444 151.168 131.612 151.546C131.786 151.924 131.873 152.383 131.873 152.923C131.873 153.511 131.771 154.063 131.567 154.579C131.369 155.089 131.075 155.536 130.685 155.92C130.301 156.298 129.83 156.598 129.272 156.82C128.714 157.036 128.075 157.144 127.355 157.144C126.941 157.144 126.533 157.102 126.131 157.018C125.729 156.94 125.342 156.826 124.97 156.676C124.604 156.526 124.259 156.346 123.935 156.136C123.611 155.926 123.323 155.692 123.071 155.434L123.782 154.273C123.842 154.189 123.92 154.12 124.016 154.066C124.112 154.006 124.214 153.976 124.322 153.976C124.472 153.976 124.634 154.039 124.808 154.165C124.982 154.285 125.189 154.42 125.429 154.57C125.669 154.72 125.948 154.858 126.266 154.984C126.59 155.104 126.977 155.164 127.427 155.164C128.117 155.164 128.651 155.002 129.029 154.678C129.407 154.348 129.596 153.877 129.596 153.265C129.596 152.923 129.509 152.644 129.335 152.428C129.167 152.212 128.942 152.032 128.66 151.888C128.378 151.738 128.057 151.612 127.697 151.51C127.337 151.408 126.971 151.297 126.599 151.177C126.227 151.057 125.861 150.913 125.501 150.745C125.141 150.577 124.82 150.358 124.538 150.088C124.256 149.818 124.028 149.482 123.854 149.08C123.686 148.672 123.602 148.171 123.602 147.577C123.602 147.103 123.695 146.641 123.881 146.191C124.073 145.741 124.349 145.342 124.709 144.994C125.069 144.646 125.513 144.367 126.041 144.157C126.569 143.947 127.175 143.842 127.859 143.842C128.627 143.842 129.335 143.962 129.983 144.202C130.631 144.442 131.183 144.778 131.639 145.21L131.036 146.353ZM136.308 157.144C135.504 157.144 134.886 156.919 134.454 156.469C134.028 156.013 133.815 155.386 133.815 154.588V149.431H132.87C132.75 149.431 132.648 149.392 132.564 149.314C132.48 149.236 132.438 149.119 132.438 148.963V148.081L133.923 147.838L134.391 145.318C134.421 145.198 134.478 145.105 134.562 145.039C134.646 144.973 134.754 144.94 134.886 144.94H136.038V147.847H138.504V149.431H136.038V154.435C136.038 154.723 136.107 154.948 136.245 155.11C136.389 155.272 136.584 155.353 136.83 155.353C136.968 155.353 137.082 155.338 137.172 155.308C137.268 155.272 137.349 155.236 137.415 155.2C137.487 155.164 137.55 155.131 137.604 155.101C137.658 155.065 137.712 155.047 137.766 155.047C137.832 155.047 137.886 155.065 137.928 155.101C137.97 155.131 138.015 155.179 138.063 155.245L138.729 156.325C138.405 156.595 138.033 156.799 137.613 156.937C137.193 157.075 136.758 157.144 136.308 157.144ZM143.943 147.622C144.627 147.622 145.248 147.733 145.806 147.955C146.37 148.177 146.85 148.492 147.246 148.9C147.648 149.308 147.957 149.806 148.173 150.394C148.389 150.982 148.497 151.639 148.497 152.365C148.497 153.097 148.389 153.757 148.173 154.345C147.957 154.933 147.648 155.434 147.246 155.848C146.85 156.262 146.37 156.58 145.806 156.802C145.248 157.024 144.627 157.135 143.943 157.135C143.253 157.135 142.626 157.024 142.062 156.802C141.498 156.58 141.015 156.262 140.613 155.848C140.217 155.434 139.908 154.933 139.686 154.345C139.47 153.757 139.362 153.097 139.362 152.365C139.362 151.639 139.47 150.982 139.686 150.394C139.908 149.806 140.217 149.308 140.613 148.9C141.015 148.492 141.498 148.177 142.062 147.955C142.626 147.733 143.253 147.622 143.943 147.622ZM143.943 155.425C144.711 155.425 145.278 155.167 145.644 154.651C146.016 154.135 146.202 153.379 146.202 152.383C146.202 151.387 146.016 150.628 145.644 150.106C145.278 149.584 144.711 149.323 143.943 149.323C143.163 149.323 142.584 149.587 142.206 150.115C141.834 150.637 141.648 151.393 141.648 152.383C141.648 153.373 141.834 154.129 142.206 154.651C142.584 155.167 143.163 155.425 143.943 155.425ZM152.29 149.368C152.578 148.816 152.92 148.384 153.316 148.072C153.712 147.754 154.18 147.595 154.72 147.595C155.146 147.595 155.488 147.688 155.746 147.874L155.602 149.539C155.572 149.647 155.527 149.725 155.467 149.773C155.413 149.815 155.338 149.836 155.242 149.836C155.152 149.836 155.017 149.821 154.837 149.791C154.663 149.761 154.492 149.746 154.324 149.746C154.078 149.746 153.859 149.782 153.667 149.854C153.475 149.926 153.301 150.031 153.145 150.169C152.995 150.301 152.86 150.463 152.74 150.655C152.626 150.847 152.518 151.066 152.416 151.312V157H150.193V147.766H151.498C151.726 147.766 151.885 147.808 151.975 147.892C152.065 147.97 152.125 148.114 152.155 148.324L152.29 149.368ZM161.663 153.058C161.021 153.088 160.481 153.145 160.043 153.229C159.605 153.307 159.254 153.409 158.99 153.535C158.726 153.661 158.537 153.808 158.423 153.976C158.309 154.144 158.252 154.327 158.252 154.525C158.252 154.915 158.366 155.194 158.594 155.362C158.828 155.53 159.131 155.614 159.503 155.614C159.959 155.614 160.352 155.533 160.682 155.371C161.018 155.203 161.345 154.951 161.663 154.615V153.058ZM156.569 149.053C157.631 148.081 158.909 147.595 160.403 147.595C160.943 147.595 161.426 147.685 161.852 147.865C162.278 148.039 162.638 148.285 162.932 148.603C163.226 148.915 163.448 149.29 163.598 149.728C163.754 150.166 163.832 150.646 163.832 151.168V157H162.824C162.614 157 162.452 156.97 162.338 156.91C162.224 156.844 162.134 156.715 162.068 156.523L161.87 155.857C161.636 156.067 161.408 156.253 161.186 156.415C160.964 156.571 160.733 156.703 160.493 156.811C160.253 156.919 159.995 157 159.719 157.054C159.449 157.114 159.149 157.144 158.819 157.144C158.429 157.144 158.069 157.093 157.739 156.991C157.409 156.883 157.124 156.724 156.884 156.514C156.644 156.304 156.458 156.043 156.326 155.731C156.194 155.419 156.128 155.056 156.128 154.642C156.128 154.408 156.167 154.177 156.245 153.949C156.323 153.715 156.449 153.493 156.623 153.283C156.803 153.073 157.034 152.875 157.316 152.689C157.598 152.503 157.943 152.341 158.351 152.203C158.765 152.065 159.245 151.954 159.791 151.87C160.337 151.78 160.961 151.726 161.663 151.708V151.168C161.663 150.55 161.531 150.094 161.267 149.8C161.003 149.5 160.622 149.35 160.124 149.35C159.764 149.35 159.464 149.392 159.224 149.476C158.99 149.56 158.783 149.656 158.603 149.764C158.423 149.866 158.258 149.959 158.108 150.043C157.964 150.127 157.802 150.169 157.622 150.169C157.466 150.169 157.334 150.13 157.226 150.052C157.118 149.968 157.031 149.872 156.965 149.764L156.569 149.053ZM169.3 152.158C169.576 152.158 169.816 152.122 170.02 152.05C170.224 151.972 170.392 151.867 170.524 151.735C170.662 151.603 170.764 151.444 170.83 151.258C170.902 151.072 170.938 150.868 170.938 150.646C170.938 150.19 170.8 149.83 170.524 149.566C170.254 149.296 169.846 149.161 169.3 149.161C168.754 149.161 168.343 149.296 168.067 149.566C167.797 149.83 167.662 150.19 167.662 150.646C167.662 150.862 167.695 151.063 167.761 151.249C167.833 151.435 167.935 151.597 168.067 151.735C168.205 151.867 168.376 151.972 168.58 152.05C168.79 152.122 169.03 152.158 169.3 152.158ZM171.811 157.414C171.811 157.234 171.757 157.087 171.649 156.973C171.541 156.859 171.394 156.772 171.208 156.712C171.022 156.646 170.803 156.598 170.551 156.568C170.305 156.538 170.041 156.517 169.759 156.505C169.483 156.487 169.195 156.472 168.895 156.46C168.601 156.448 168.313 156.424 168.031 156.388C167.785 156.526 167.584 156.688 167.428 156.874C167.278 157.06 167.203 157.276 167.203 157.522C167.203 157.684 167.242 157.834 167.32 157.972C167.404 158.116 167.533 158.239 167.707 158.341C167.887 158.443 168.118 158.521 168.4 158.575C168.682 158.635 169.027 158.665 169.435 158.665C169.849 158.665 170.206 158.632 170.506 158.566C170.806 158.506 171.052 158.419 171.244 158.305C171.442 158.197 171.586 158.065 171.676 157.909C171.766 157.759 171.811 157.594 171.811 157.414ZM174.025 148.081V148.909C174.025 149.173 173.866 149.335 173.548 149.395L172.72 149.548C172.846 149.866 172.909 150.214 172.909 150.592C172.909 151.048 172.816 151.462 172.63 151.834C172.45 152.2 172.198 152.512 171.874 152.77C171.55 153.028 171.166 153.229 170.722 153.373C170.284 153.511 169.81 153.58 169.3 153.58C169.12 153.58 168.946 153.571 168.778 153.553C168.61 153.535 168.445 153.511 168.283 153.481C167.995 153.655 167.851 153.85 167.851 154.066C167.851 154.252 167.935 154.39 168.103 154.48C168.277 154.564 168.505 154.624 168.787 154.66C169.069 154.696 169.39 154.72 169.75 154.732C170.11 154.738 170.479 154.756 170.857 154.786C171.235 154.816 171.604 154.87 171.964 154.948C172.324 155.02 172.645 155.137 172.927 155.299C173.209 155.461 173.434 155.683 173.602 155.965C173.776 156.241 173.863 156.598 173.863 157.036C173.863 157.444 173.761 157.84 173.557 158.224C173.359 158.608 173.068 158.95 172.684 159.25C172.306 159.55 171.838 159.79 171.28 159.97C170.728 160.156 170.098 160.249 169.39 160.249C168.694 160.249 168.088 160.18 167.572 160.042C167.056 159.91 166.627 159.73 166.285 159.502C165.943 159.28 165.688 159.022 165.52 158.728C165.352 158.434 165.268 158.128 165.268 157.81C165.268 157.378 165.397 157.018 165.655 156.73C165.919 156.436 166.279 156.202 166.735 156.028C166.489 155.902 166.294 155.734 166.15 155.524C166.006 155.314 165.934 155.038 165.934 154.696C165.934 154.558 165.958 154.417 166.006 154.273C166.06 154.123 166.135 153.976 166.231 153.832C166.333 153.688 166.459 153.553 166.609 153.427C166.759 153.295 166.936 153.178 167.14 153.076C166.672 152.824 166.303 152.488 166.033 152.068C165.769 151.648 165.637 151.156 165.637 150.592C165.637 150.136 165.727 149.725 165.907 149.359C166.093 148.987 166.348 148.672 166.672 148.414C167.002 148.15 167.389 147.949 167.833 147.811C168.283 147.673 168.772 147.604 169.3 147.604C169.696 147.604 170.068 147.646 170.416 147.73C170.764 147.808 171.082 147.925 171.37 148.081H174.025ZM181.226 151.321C181.226 151.033 181.184 150.763 181.1 150.511C181.022 150.253 180.902 150.028 180.74 149.836C180.578 149.644 180.371 149.494 180.119 149.386C179.873 149.272 179.585 149.215 179.255 149.215C178.613 149.215 178.106 149.398 177.734 149.764C177.368 150.13 177.134 150.649 177.032 151.321H181.226ZM176.987 152.662C177.023 153.136 177.107 153.547 177.239 153.895C177.371 154.237 177.545 154.522 177.761 154.75C177.977 154.972 178.232 155.14 178.526 155.254C178.826 155.362 179.156 155.416 179.516 155.416C179.876 155.416 180.185 155.374 180.443 155.29C180.707 155.206 180.935 155.113 181.127 155.011C181.325 154.909 181.496 154.816 181.64 154.732C181.79 154.648 181.934 154.606 182.072 154.606C182.258 154.606 182.396 154.675 182.486 154.813L183.125 155.623C182.879 155.911 182.603 156.154 182.297 156.352C181.991 156.544 181.67 156.7 181.334 156.82C181.004 156.934 180.665 157.015 180.317 157.063C179.975 157.111 179.642 157.135 179.318 157.135C178.676 157.135 178.079 157.03 177.527 156.82C176.975 156.604 176.495 156.289 176.087 155.875C175.679 155.455 175.358 154.939 175.124 154.327C174.89 153.709 174.773 152.995 174.773 152.185C174.773 151.555 174.875 150.964 175.079 150.412C175.283 149.854 175.574 149.371 175.952 148.963C176.336 148.549 176.801 148.222 177.347 147.982C177.899 147.742 178.52 147.622 179.21 147.622C179.792 147.622 180.329 147.715 180.821 147.901C181.313 148.087 181.736 148.36 182.09 148.72C182.444 149.074 182.72 149.512 182.918 150.034C183.122 150.55 183.224 151.141 183.224 151.807C183.224 152.143 183.188 152.371 183.116 152.491C183.044 152.605 182.906 152.662 182.702 152.662H176.987Z" fill="#101010"/>
<path d="M135.75 114.18H129.961V95.25C129.961 94.9063 129.68 94.625 129.336 94.625H124.648C124.305 94.625 124.023 94.9063 124.023 95.25V114.18H118.25C117.727 114.18 117.437 114.781 117.758 115.188L126.508 126.258C126.566 126.333 126.641 126.393 126.726 126.434C126.812 126.476 126.905 126.498 127 126.498C127.095 126.498 127.188 126.476 127.274 126.434C127.359 126.393 127.434 126.333 127.492 126.258L136.242 115.188C136.562 114.781 136.273 114.18 135.75 114.18Z" fill="#ED4C5C"/>
<path d="M150.391 87.6484C146.813 78.2109 137.695 71.5 127.016 71.5C116.336 71.5 107.219 78.2031 103.641 87.6406C96.9453 89.3984 92 95.5 92 102.75C92 111.383 98.9922 118.375 107.617 118.375H110.75C111.094 118.375 111.375 118.094 111.375 117.75V113.062C111.375 112.719 111.094 112.438 110.75 112.438H107.617C104.984 112.438 102.508 111.391 100.664 109.492C98.8281 107.602 97.8516 105.055 97.9375 102.414C98.0078 100.352 98.7109 98.4141 99.9844 96.7812C101.289 95.1172 103.117 93.9062 105.148 93.3672L108.109 92.5938L109.195 89.7344C109.867 87.9531 110.805 86.2891 111.984 84.7812C113.149 83.2868 114.529 81.973 116.078 80.8828C119.289 78.625 123.07 77.4297 127.016 77.4297C130.961 77.4297 134.742 78.625 137.953 80.8828C139.508 81.9766 140.883 83.2891 142.047 84.7812C143.227 86.2891 144.164 87.9609 144.836 89.7344L145.914 92.5859L148.867 93.3672C153.102 94.5078 156.062 98.3594 156.062 102.75C156.062 105.336 155.055 107.773 153.227 109.602C152.33 110.503 151.264 111.218 150.089 111.705C148.914 112.192 147.654 112.441 146.383 112.438H143.25C142.906 112.438 142.625 112.719 142.625 113.062V117.75C142.625 118.094 142.906 118.375 143.25 118.375H146.383C155.008 118.375 162 111.383 162 102.75C162 95.5078 157.07 89.4141 150.391 87.6484Z" fill="#ED4C5C"/>
<path d="M124.992 62.85C124.992 69.15 124.309 74.6333 122.942 79.3C121.609 83.9333 119.742 87.7667 117.342 90.8C114.976 93.8333 112.159 96.1 108.892 97.6C105.659 99.0667 102.159 99.8 98.3922 99.8C94.6255 99.8 91.1255 99.0667 87.8922 97.6C84.6922 96.1 81.9089 93.8333 79.5422 90.8C77.1755 87.7667 75.3255 83.9333 73.9922 79.3C72.6589 74.6333 71.9922 69.15 71.9922 62.85C71.9922 56.5167 72.6589 51.0333 73.9922 46.4C75.3255 41.7667 77.1755 37.9333 79.5422 34.9C81.9089 31.8667 84.6922 29.6167 87.8922 28.15C91.1255 26.65 94.6255 25.9 98.3922 25.9C102.159 25.9 105.659 26.65 108.892 28.15C112.159 29.6167 114.976 31.8667 117.342 34.9C119.742 37.9333 121.609 41.7667 122.942 46.4C124.309 51.0333 124.992 56.5167 124.992 62.85ZM112.242 62.85C112.242 57.6167 111.859 53.2833 111.092 49.85C110.326 46.4167 109.292 43.6833 107.992 41.65C106.726 39.6167 105.259 38.2 103.592 37.4C101.926 36.5667 100.192 36.15 98.3922 36.15C96.6255 36.15 94.9089 36.5667 93.2422 37.4C91.6089 38.2 90.1589 39.6167 88.8922 41.65C87.6255 43.6833 86.6089 46.4167 85.8422 49.85C85.1089 53.2833 84.7422 57.6167 84.7422 62.85C84.7422 68.0833 85.1089 72.4167 85.8422 75.85C86.6089 79.2833 87.6255 82.0167 88.8922 84.05C90.1589 86.0833 91.6089 87.5167 93.2422 88.35C94.9089 89.15 96.6255 89.55 98.3922 89.55C100.192 89.55 101.926 89.15 103.592 88.35C105.259 87.5167 106.726 86.0833 107.992 84.05C109.292 82.0167 110.326 79.2833 111.092 75.85C111.859 72.4167 112.242 68.0833 112.242 62.85ZM179.25 89.75V99H139.25V89.75H153.9V47.6C153.9 45.9333 153.95 44.2167 154.05 42.45L143.65 51.15C143.05 51.6167 142.45 51.9167 141.85 52.05C141.283 52.15 140.733 52.15 140.2 52.05C139.7 51.95 139.25 51.7833 138.85 51.55C138.45 51.2833 138.15 51 137.95 50.7L134.05 45.35L156.1 26.6H166.25V89.75H179.25Z" fill="#101010" fill-opacity="0.08"/>
</svg>
